<svg width="340" height="340" viewBox="0 0 340 340" fill="none" xmlns="http://www.w3.org/2000/svg">
<g clip-path="url(#clip0_72_2857)">
<path d="M340 0H0V340H340V0Z" fill="white"/>
<path d="M38.6651 28.936H28.9365V38.6646H38.6651V28.936Z" fill="black"/>
<path d="M48.3936 28.936H38.6651V38.6646H48.3936V28.936Z" fill="black"/>
<path d="M58.1221 28.936H48.3936V38.6646H58.1221V28.936Z" fill="black"/>
<path d="M67.8507 28.936H58.1221V38.6646H67.8507V28.936Z" fill="black"/>
<path d="M77.5792 28.936H67.8507V38.6646H77.5792V28.936Z" fill="black"/>
<path d="M87.3078 28.936H77.5792V38.6646H87.3078V28.936Z" fill="black"/>
<path d="M97.0363 28.936H87.3078V38.6646H97.0363V28.936Z" fill="black"/>
<path d="M116.493 28.936H106.765V38.6646H116.493V28.936Z" fill="black"/>
<path d="M135.95 28.936H126.222V38.6646H135.95V28.936Z" fill="black"/>
<path d="M145.679 28.936H135.95V38.6646H145.679V28.936Z" fill="black"/>
<path d="M165.136 28.936H155.408V38.6646H165.136V28.936Z" fill="black"/>
<path d="M174.865 28.936H165.136V38.6646H174.865V28.936Z" fill="black"/>
<path d="M184.593 28.936H174.865V38.6646H184.593V28.936Z" fill="black"/>
<path d="M213.779 28.936H204.05V38.6646H213.779V28.936Z" fill="black"/>
<path d="M233.236 28.936H223.507V38.6646H233.236V28.936Z" fill="black"/>
<path d="M252.693 28.936H242.964V38.6646H252.693V28.936Z" fill="black"/>
<path d="M262.421 28.936H252.693V38.6646H262.421V28.936Z" fill="black"/>
<path d="M272.15 28.936H262.421V38.6646H272.15V28.936Z" fill="black"/>
<path d="M281.879 28.936H272.15V38.6646H281.879V28.936Z" fill="black"/>
<path d="M291.607 28.936H281.879V38.6646H291.607V28.936Z" fill="black"/>
<path d="M301.336 28.936H291.607V38.6646H301.336V28.936Z" fill="black"/>
<path d="M311.064 28.936H301.336V38.6646H311.064V28.936Z" fill="black"/>
<path d="M38.6651 38.6646H28.9365V48.3931H38.6651V38.6646Z" fill="black"/>
<path d="M97.0363 38.6646H87.3078V48.3931H97.0363V38.6646Z" fill="black"/>
<path d="M155.408 38.6646H145.679V48.3931H155.408V38.6646Z" fill="black"/>
<path d="M165.136 38.6646H155.408V48.3931H165.136V38.6646Z" fill="black"/>
<path d="M174.865 38.6646H165.136V48.3931H174.865V38.6646Z" fill="black"/>
<path d="M194.322 38.6646H184.593V48.3931H194.322V38.6646Z" fill="black"/>
<path d="M252.693 38.6646H242.964V48.3931H252.693V38.6646Z" fill="black"/>
<path d="M311.064 38.6646H301.336V48.3931H311.064V38.6646Z" fill="black"/>
<path d="M38.6651 48.3931H28.9365V58.1217H38.6651V48.3931Z" fill="black"/>
<path d="M58.1221 48.3931H48.3936V58.1217H58.1221V48.3931Z" fill="black"/>
<path d="M67.8507 48.3931H58.1221V58.1217H67.8507V48.3931Z" fill="black"/>
<path d="M77.5792 48.3931H67.8507V58.1217H77.5792V48.3931Z" fill="black"/>
<path d="M97.0363 48.3931H87.3078V58.1217H97.0363V48.3931Z" fill="black"/>
<path d="M126.222 48.3931H116.493V58.1217H126.222V48.3931Z" fill="black"/>
<path d="M135.95 48.3931H126.222V58.1217H135.95V48.3931Z" fill="black"/>
<path d="M155.408 48.3931H145.679V58.1217H155.408V48.3931Z" fill="black"/>
<path d="M165.136 48.3931H155.408V58.1217H165.136V48.3931Z" fill="black"/>
<path d="M184.593 48.3931H174.865V58.1217H184.593V48.3931Z" fill="black"/>
<path d="M204.05 48.3931H194.322V58.1217H204.05V48.3931Z" fill="black"/>
<path d="M213.779 48.3931H204.05V58.1217H213.779V48.3931Z" fill="black"/>
<path d="M233.236 48.3931H223.507V58.1217H233.236V48.3931Z" fill="black"/>
<path d="M252.693 48.3931H242.964V58.1217H252.693V48.3931Z" fill="black"/>
<path d="M272.15 48.3931H262.421V58.1217H272.15V48.3931Z" fill="black"/>
<path d="M281.879 48.3931H272.15V58.1217H281.879V48.3931Z" fill="black"/>
<path d="M291.607 48.3931H281.879V58.1217H291.607V48.3931Z" fill="black"/>
<path d="M311.064 48.3931H301.336V58.1217H311.064V48.3931Z" fill="black"/>
<path d="M38.6651 58.1217H28.9365V67.8502H38.6651V58.1217Z" fill="black"/>
<path d="M58.1221 58.1217H48.3936V67.8502H58.1221V58.1217Z" fill="black"/>
<path d="M67.8507 58.1217H58.1221V67.8502H67.8507V58.1217Z" fill="black"/>
<path d="M77.5792 58.1217H67.8507V67.8502H77.5792V58.1217Z" fill="black"/>
<path d="M97.0363 58.1217H87.3078V67.8502H97.0363V58.1217Z" fill="black"/>
<path d="M116.493 58.1217H106.765V67.8502H116.493V58.1217Z" fill="black"/>
<path d="M126.222 58.1217H116.493V67.8502H126.222V58.1217Z" fill="black"/>
<path d="M135.95 58.1217H126.222V67.8502H135.95V58.1217Z" fill="black"/>
<path d="M155.408 58.1217H145.679V67.8502H155.408V58.1217Z" fill="black"/>
<path d="M174.865 58.1217H165.136V67.8502H174.865V58.1217Z" fill="black"/>
<path d="M184.593 58.1217H174.865V67.8502H184.593V58.1217Z" fill="black"/>
<path d="M194.322 58.1217H184.593V67.8502H194.322V58.1217Z" fill="black"/>
<path d="M204.05 58.1217H194.322V67.8502H204.05V58.1217Z" fill="black"/>
<path d="M213.779 58.1217H204.05V67.8502H213.779V58.1217Z" fill="black"/>
<path d="M223.507 58.1217H213.779V67.8502H223.507V58.1217Z" fill="black"/>
<path d="M252.693 58.1217H242.964V67.8502H252.693V58.1217Z" fill="black"/>
<path d="M272.15 58.1217H262.421V67.8502H272.15V58.1217Z" fill="black"/>
<path d="M281.879 58.1217H272.15V67.8502H281.879V58.1217Z" fill="black"/>
<path d="M291.607 58.1217H281.879V67.8502H291.607V58.1217Z" fill="black"/>
<path d="M311.064 58.1217H301.336V67.8502H311.064V58.1217Z" fill="black"/>
<path d="M38.6651 67.8502H28.9365V77.5787H38.6651V67.8502Z" fill="black"/>
<path d="M58.1221 67.8502H48.3936V77.5787H58.1221V67.8502Z" fill="black"/>
<path d="M67.8507 67.8502H58.1221V77.5787H67.8507V67.8502Z" fill="black"/>
<path d="M77.5792 67.8502H67.8507V77.5787H77.5792V67.8502Z" fill="black"/>
<path d="M97.0363 67.8502H87.3078V77.5787H97.0363V67.8502Z" fill="black"/>
<path d="M135.95 67.8502H126.222V77.5787H135.95V67.8502Z" fill="black"/>
<path d="M145.679 67.8502H135.95V77.5787H145.679V67.8502Z" fill="black"/>
<path d="M204.05 67.8502H194.322V77.5787H204.05V67.8502Z" fill="black"/>
<path d="M223.507 67.8502H213.779V77.5787H223.507V67.8502Z" fill="black"/>
<path d="M252.693 67.8502H242.964V77.5787H252.693V67.8502Z" fill="black"/>
<path d="M272.15 67.8502H262.421V77.5787H272.15V67.8502Z" fill="black"/>
<path d="M281.879 67.8502H272.15V77.5787H281.879V67.8502Z" fill="black"/>
<path d="M291.607 67.8502H281.879V77.5787H291.607V67.8502Z" fill="black"/>
<path d="M311.064 67.8502H301.336V77.5787H311.064V67.8502Z" fill="black"/>
<path d="M38.6651 77.5787H28.9365V87.3073H38.6651V77.5787Z" fill="black"/>
<path d="M97.0363 77.5787H87.3078V87.3073H97.0363V77.5787Z" fill="black"/>
<path d="M116.493 77.5787H106.765V87.3073H116.493V77.5787Z" fill="black"/>
<path d="M135.95 77.5787H126.222V87.3073H135.95V77.5787Z" fill="black"/>
<path d="M145.679 77.5787H135.95V87.3073H145.679V77.5787Z" fill="black"/>
<path d="M155.408 77.5787H145.679V87.3073H155.408V77.5787Z" fill="black"/>
<path d="M165.136 77.5787H155.408V87.3073H165.136V77.5787Z" fill="black"/>
<path d="M174.865 77.5787H165.136V87.3073H174.865V77.5787Z" fill="black"/>
<path d="M184.593 77.5787H174.865V87.3073H184.593V77.5787Z" fill="black"/>
<path d="M204.05 77.5787H194.322V87.3073H204.05V77.5787Z" fill="black"/>
<path d="M213.779 77.5787H204.05V87.3073H213.779V77.5787Z" fill="black"/>
<path d="M223.507 77.5787H213.779V87.3073H223.507V77.5787Z" fill="black"/>
<path d="M252.693 77.5787H242.964V87.3073H252.693V77.5787Z" fill="black"/>
<path d="M311.064 77.5787H301.336V87.3073H311.064V77.5787Z" fill="black"/>
<path d="M38.6651 87.3073H28.9365V97.0358H38.6651V87.3073Z" fill="black"/>
<path d="M48.3936 87.3073H38.6651V97.0358H48.3936V87.3073Z" fill="black"/>
<path d="M58.1221 87.3073H48.3936V97.0358H58.1221V87.3073Z" fill="black"/>
<path d="M67.8507 87.3073H58.1221V97.0358H67.8507V87.3073Z" fill="black"/>
<path d="M77.5792 87.3073H67.8507V97.0358H77.5792V87.3073Z" fill="black"/>
<path d="M87.3078 87.3073H77.5792V97.0358H87.3078V87.3073Z" fill="black"/>
<path d="M97.0363 87.3073H87.3078V97.0358H97.0363V87.3073Z" fill="black"/>
<path d="M116.493 87.3073H106.765V97.0358H116.493V87.3073Z" fill="black"/>
<path d="M135.95 87.3073H126.222V97.0358H135.95V87.3073Z" fill="black"/>
<path d="M155.408 87.3073H145.679V97.0358H155.408V87.3073Z" fill="black"/>
<path d="M174.865 87.3073H165.136V97.0358H174.865V87.3073Z" fill="black"/>
<path d="M194.322 87.3073H184.593V97.0358H194.322V87.3073Z" fill="black"/>
<path d="M213.779 87.3073H204.05V97.0358H213.779V87.3073Z" fill="black"/>
<path d="M233.236 87.3073H223.507V97.0358H233.236V87.3073Z" fill="black"/>
<path d="M252.693 87.3073H242.964V97.0358H252.693V87.3073Z" fill="black"/>
<path d="M262.421 87.3073H252.693V97.0358H262.421V87.3073Z" fill="black"/>
<path d="M272.15 87.3073H262.421V97.0358H272.15V87.3073Z" fill="black"/>
<path d="M281.879 87.3073H272.15V97.0358H281.879V87.3073Z" fill="black"/>
<path d="M291.607 87.3073H281.879V97.0358H291.607V87.3073Z" fill="black"/>
<path d="M301.336 87.3073H291.607V97.0358H301.336V87.3073Z" fill="black"/>
<path d="M311.064 87.3073H301.336V97.0358H311.064V87.3073Z" fill="black"/>
<path d="M174.865 97.0358H165.136V106.764H174.865V97.0358Z" fill="black"/>
<path d="M194.322 97.0358H184.593V106.764H194.322V97.0358Z" fill="black"/>
<path d="M213.779 97.0358H204.05V106.764H213.779V97.0358Z" fill="black"/>
<path d="M223.507 97.0358H213.779V106.764H223.507V97.0358Z" fill="black"/>
<path d="M87.3078 106.764H77.5792V116.493H87.3078V106.764Z" fill="black"/>
<path d="M97.0363 106.764H87.3078V116.493H97.0363V106.764Z" fill="black"/>
<path d="M116.493 106.764H106.765V116.493H116.493V106.764Z" fill="black"/>
<path d="M135.95 106.764H126.222V116.493H135.95V106.764Z" fill="black"/>
<path d="M155.408 106.764H145.679V116.493H155.408V106.764Z" fill="black"/>
<path d="M165.136 106.764H155.408V116.493H165.136V106.764Z" fill="black"/>
<path d="M204.05 106.764H194.322V116.493H204.05V106.764Z" fill="black"/>
<path d="M233.236 106.764H223.507V116.493H233.236V106.764Z" fill="black"/>
<path d="M242.964 106.764H233.236V116.493H242.964V106.764Z" fill="black"/>
<path d="M262.421 106.764H252.693V116.493H262.421V106.764Z" fill="black"/>
<path d="M281.879 106.764H272.15V116.493H281.879V106.764Z" fill="black"/>
<path d="M311.064 106.764H301.336V116.493H311.064V106.764Z" fill="black"/>
<path d="M48.3936 116.493H38.6651V126.221H48.3936V116.493Z" fill="black"/>
<path d="M58.1221 116.493H48.3936V126.221H58.1221V116.493Z" fill="black"/>
<path d="M126.222 116.493H116.493V126.221H126.222V116.493Z" fill="black"/>
<path d="M145.679 116.493H135.95V126.221H145.679V116.493Z" fill="black"/>
<path d="M165.136 116.493H155.408V126.221H165.136V116.493Z" fill="black"/>
<path d="M204.05 116.493H194.322V126.221H204.05V116.493Z" fill="black"/>
<path d="M262.421 116.493H252.693V126.221H262.421V116.493Z" fill="black"/>
<path d="M272.15 116.493H262.421V126.221H272.15V116.493Z" fill="black"/>
<path d="M281.879 116.493H272.15V126.221H281.879V116.493Z" fill="black"/>
<path d="M291.607 116.493H281.879V126.221H291.607V116.493Z" fill="black"/>
<path d="M301.336 116.493H291.607V126.221H301.336V116.493Z" fill="black"/>
<path d="M48.3936 126.221H38.6651V135.95H48.3936V126.221Z" fill="black"/>
<path d="M67.8507 126.221H58.1221V135.95H67.8507V126.221Z" fill="black"/>
<path d="M77.5792 126.221H67.8507V135.95H77.5792V126.221Z" fill="black"/>
<path d="M87.3078 126.221H77.5792V135.95H87.3078V126.221Z" fill="black"/>
<path d="M97.0363 126.221H87.3078V135.95H97.0363V126.221Z" fill="black"/>
<path d="M106.765 126.221H97.0363V135.95H106.765V126.221Z" fill="black"/>
<path d="M116.493 126.221H106.765V135.95H116.493V126.221Z" fill="black"/>
<path d="M135.95 126.221H126.222V135.95H135.95V126.221Z" fill="black"/>
<path d="M145.679 126.221H135.95V135.95H145.679V126.221Z" fill="black"/>
<path d="M165.136 126.221H155.408V135.95H165.136V126.221Z" fill="black"/>
<path d="M194.322 126.221H184.593V135.95H194.322V126.221Z" fill="black"/>
<path d="M204.05 126.221H194.322V135.95H204.05V126.221Z" fill="black"/>
<path d="M213.779 126.221H204.05V135.95H213.779V126.221Z" fill="black"/>
<path d="M223.507 126.221H213.779V135.95H223.507V126.221Z" fill="black"/>
<path d="M272.15 126.221H262.421V135.95H272.15V126.221Z" fill="black"/>
<path d="M291.607 126.221H281.879V135.95H291.607V126.221Z" fill="black"/>
<path d="M301.336 126.221H291.607V135.95H301.336V126.221Z" fill="black"/>
<path d="M58.1221 135.95H48.3936V145.679H58.1221V135.95Z" fill="black"/>
<path d="M77.5792 135.95H67.8507V145.679H77.5792V135.95Z" fill="black"/>
<path d="M126.222 135.95H116.493V145.679H126.222V135.95Z" fill="black"/>
<path d="M135.95 135.95H126.222V145.679H135.95V135.95Z" fill="black"/>
<path d="M174.865 135.95H165.136V145.679H174.865V135.95Z" fill="black"/>
<path d="M184.593 135.95H174.865V145.679H184.593V135.95Z" fill="black"/>
<path d="M204.05 135.95H194.322V145.679H204.05V135.95Z" fill="black"/>
<path d="M223.507 135.95H213.779V145.679H223.507V135.95Z" fill="black"/>
<path d="M252.693 135.95H242.964V145.679H252.693V135.95Z" fill="black"/>
<path d="M262.421 135.95H252.693V145.679H262.421V135.95Z" fill="black"/>
<path d="M281.879 135.95H272.15V145.679H281.879V135.95Z" fill="black"/>
<path d="M301.336 135.95H291.607V145.679H301.336V135.95Z" fill="black"/>
<path d="M48.3936 145.679H38.6651V155.407H48.3936V145.679Z" fill="black"/>
<path d="M58.1221 145.679H48.3936V155.407H58.1221V145.679Z" fill="black"/>
<path d="M77.5792 145.679H67.8507V155.407H77.5792V145.679Z" fill="black"/>
<path d="M87.3078 145.679H77.5792V155.407H87.3078V145.679Z" fill="black"/>
<path d="M97.0363 145.679H87.3078V155.407H97.0363V145.679Z" fill="black"/>
<path d="M106.765 145.679H97.0363V155.407H106.765V145.679Z" fill="black"/>
<path d="M126.222 145.679H116.493V155.407H126.222V145.679Z" fill="black"/>
<path d="M135.95 145.679H126.222V155.407H135.95V145.679Z" fill="black"/>
<path d="M155.408 145.679H145.679V155.407H155.408V145.679Z" fill="black"/>
<path d="M184.593 145.679H174.865V155.407H184.593V145.679Z" fill="black"/>
<path d="M262.421 145.679H252.693V155.407H262.421V145.679Z" fill="black"/>
<path d="M281.879 145.679H272.15V155.407H281.879V145.679Z" fill="black"/>
<path d="M291.607 145.679H281.879V155.407H291.607V145.679Z" fill="black"/>
<path d="M301.336 145.679H291.607V155.407H301.336V145.679Z" fill="black"/>
<path d="M311.064 145.679H301.336V155.407H311.064V145.679Z" fill="black"/>
<path d="M38.6651 155.407H28.9365V165.136H38.6651V155.407Z" fill="black"/>
<path d="M48.3936 155.407H38.6651V165.136H48.3936V155.407Z" fill="black"/>
<path d="M58.1221 155.407H48.3936V165.136H58.1221V155.407Z" fill="black"/>
<path d="M67.8507 155.407H58.1221V165.136H67.8507V155.407Z" fill="black"/>
<path d="M77.5792 155.407H67.8507V165.136H77.5792V155.407Z" fill="black"/>
<path d="M87.3078 155.407H77.5792V165.136H87.3078V155.407Z" fill="black"/>
<path d="M184.593 155.407H174.865V165.136H184.593V155.407Z" fill="black"/>
<path d="M194.322 155.407H184.593V165.136H194.322V155.407Z" fill="black"/>
<path d="M213.779 155.407H204.05V165.136H213.779V155.407Z" fill="black"/>
<path d="M223.507 155.407H213.779V165.136H223.507V155.407Z" fill="black"/>
<path d="M242.964 155.407H233.236V165.136H242.964V155.407Z" fill="black"/>
<path d="M252.693 155.407H242.964V165.136H252.693V155.407Z" fill="black"/>
<path d="M262.421 155.407H252.693V165.136H262.421V155.407Z" fill="black"/>
<path d="M311.064 155.407H301.336V165.136H311.064V155.407Z" fill="black"/>
<path d="M48.3936 165.136H38.6651V174.864H48.3936V165.136Z" fill="black"/>
<path d="M67.8507 165.136H58.1221V174.864H67.8507V165.136Z" fill="black"/>
<path d="M77.5792 165.136H67.8507V174.864H77.5792V165.136Z" fill="black"/>
<path d="M87.3078 165.136H77.5792V174.864H87.3078V165.136Z" fill="black"/>
<path d="M97.0363 165.136H87.3078V174.864H97.0363V165.136Z" fill="black"/>
<path d="M106.765 165.136H97.0363V174.864H106.765V165.136Z" fill="black"/>
<path d="M126.222 165.136H116.493V174.864H126.222V165.136Z" fill="black"/>
<path d="M145.679 165.136H135.95V174.864H145.679V165.136Z" fill="black"/>
<path d="M184.593 165.136H174.865V174.864H184.593V165.136Z" fill="black"/>
<path d="M194.322 165.136H184.593V174.864H194.322V165.136Z" fill="black"/>
<path d="M233.236 165.136H223.507V174.864H233.236V165.136Z" fill="black"/>
<path d="M252.693 165.136H242.964V174.864H252.693V165.136Z" fill="black"/>
<path d="M272.15 165.136H262.421V174.864H272.15V165.136Z" fill="black"/>
<path d="M281.879 165.136H272.15V174.864H281.879V165.136Z" fill="black"/>
<path d="M48.3936 174.864H38.6651V184.593H48.3936V174.864Z" fill="black"/>
<path d="M67.8507 174.864H58.1221V184.593H67.8507V174.864Z" fill="black"/>
<path d="M116.493 174.864H106.765V184.593H116.493V174.864Z" fill="black"/>
<path d="M126.222 174.864H116.493V184.593H126.222V174.864Z" fill="black"/>
<path d="M145.679 174.864H135.95V184.593H145.679V174.864Z" fill="black"/>
<path d="M165.136 174.864H155.408V184.593H165.136V174.864Z" fill="black"/>
<path d="M174.865 174.864H165.136V184.593H174.865V174.864Z" fill="black"/>
<path d="M194.322 174.864H184.593V184.593H194.322V174.864Z" fill="black"/>
<path d="M204.05 174.864H194.322V184.593H204.05V174.864Z" fill="black"/>
<path d="M223.507 174.864H213.779V184.593H223.507V174.864Z" fill="black"/>
<path d="M242.964 174.864H233.236V184.593H242.964V174.864Z" fill="black"/>
<path d="M252.693 174.864H242.964V184.593H252.693V174.864Z" fill="black"/>
<path d="M272.15 174.864H262.421V184.593H272.15V174.864Z" fill="black"/>
<path d="M281.879 174.864H272.15V184.593H281.879V174.864Z" fill="black"/>
<path d="M301.336 174.864H291.607V184.593H301.336V174.864Z" fill="black"/>
<path d="M38.6651 184.593H28.9365V194.321H38.6651V184.593Z" fill="black"/>
<path d="M58.1221 184.593H48.3936V194.321H58.1221V184.593Z" fill="black"/>
<path d="M77.5792 184.593H67.8507V194.321H77.5792V184.593Z" fill="black"/>
<path d="M97.0363 184.593H87.3078V194.321H97.0363V184.593Z" fill="black"/>
<path d="M135.95 184.593H126.222V194.321H135.95V184.593Z" fill="black"/>
<path d="M155.408 184.593H145.679V194.321H155.408V184.593Z" fill="black"/>
<path d="M174.865 184.593H165.136V194.321H174.865V184.593Z" fill="black"/>
<path d="M184.593 184.593H174.865V194.321H184.593V184.593Z" fill="black"/>
<path d="M194.322 184.593H184.593V194.321H194.322V184.593Z" fill="black"/>
<path d="M223.507 184.593H213.779V194.321H223.507V184.593Z" fill="black"/>
<path d="M233.236 184.593H223.507V194.321H233.236V184.593Z" fill="black"/>
<path d="M242.964 184.593H233.236V194.321H242.964V184.593Z" fill="black"/>
<path d="M262.421 184.593H252.693V194.321H262.421V184.593Z" fill="black"/>
<path d="M281.879 184.593H272.15V194.321H281.879V184.593Z" fill="black"/>
<path d="M38.6651 194.321H28.9365V204.05H38.6651V194.321Z" fill="black"/>
<path d="M58.1221 194.321H48.3936V204.05H58.1221V194.321Z" fill="black"/>
<path d="M87.3078 194.321H77.5792V204.05H87.3078V194.321Z" fill="black"/>
<path d="M106.765 194.321H97.0363V204.05H106.765V194.321Z" fill="black"/>
<path d="M155.408 194.321H145.679V204.05H155.408V194.321Z" fill="black"/>
<path d="M165.136 194.321H155.408V204.05H165.136V194.321Z" fill="black"/>
<path d="M174.865 194.321H165.136V204.05H174.865V194.321Z" fill="black"/>
<path d="M184.593 194.321H174.865V204.05H184.593V194.321Z" fill="black"/>
<path d="M194.322 194.321H184.593V204.05H194.322V194.321Z" fill="black"/>
<path d="M223.507 194.321H213.779V204.05H223.507V194.321Z" fill="black"/>
<path d="M242.964 194.321H233.236V204.05H242.964V194.321Z" fill="black"/>
<path d="M38.6651 204.05H28.9365V213.778H38.6651V204.05Z" fill="black"/>
<path d="M48.3936 204.05H38.6651V213.778H48.3936V204.05Z" fill="black"/>
<path d="M67.8507 204.05H58.1221V213.778H67.8507V204.05Z" fill="black"/>
<path d="M77.5792 204.05H67.8507V213.778H77.5792V204.05Z" fill="black"/>
<path d="M97.0363 204.05H87.3078V213.778H97.0363V204.05Z" fill="black"/>
<path d="M106.765 204.05H97.0363V213.778H106.765V204.05Z" fill="black"/>
<path d="M135.95 204.05H126.222V213.778H135.95V204.05Z" fill="black"/>
<path d="M145.679 204.05H135.95V213.778H145.679V204.05Z" fill="black"/>
<path d="M213.779 204.05H204.05V213.778H213.779V204.05Z" fill="black"/>
<path d="M223.507 204.05H213.779V213.778H223.507V204.05Z" fill="black"/>
<path d="M272.15 204.05H262.421V213.778H272.15V204.05Z" fill="black"/>
<path d="M38.6651 213.778H28.9365V223.507H38.6651V213.778Z" fill="black"/>
<path d="M87.3078 213.778H77.5792V223.507H87.3078V213.778Z" fill="black"/>
<path d="M135.95 213.778H126.222V223.507H135.95V213.778Z" fill="black"/>
<path d="M165.136 213.778H155.408V223.507H165.136V213.778Z" fill="black"/>
<path d="M184.593 213.778H174.865V223.507H184.593V213.778Z" fill="black"/>
<path d="M194.322 213.778H184.593V223.507H194.322V213.778Z" fill="black"/>
<path d="M242.964 213.778H233.236V223.507H242.964V213.778Z" fill="black"/>
<path d="M58.1221 223.507H48.3936V233.235H58.1221V223.507Z" fill="black"/>
<path d="M97.0363 223.507H87.3078V233.235H97.0363V223.507Z" fill="black"/>
<path d="M106.765 223.507H97.0363V233.235H106.765V223.507Z" fill="black"/>
<path d="M126.222 223.507H116.493V233.235H126.222V223.507Z" fill="black"/>
<path d="M135.95 223.507H126.222V233.235H135.95V223.507Z" fill="black"/>
<path d="M165.136 223.507H155.408V233.235H165.136V223.507Z" fill="black"/>
<path d="M194.322 223.507H184.593V233.235H194.322V223.507Z" fill="black"/>
<path d="M204.05 223.507H194.322V233.235H204.05V223.507Z" fill="black"/>
<path d="M233.236 223.507H223.507V233.235H233.236V223.507Z" fill="black"/>
<path d="M242.964 223.507H233.236V233.235H242.964V223.507Z" fill="black"/>
<path d="M252.693 223.507H242.964V233.235H252.693V223.507Z" fill="black"/>
<path d="M262.421 223.507H252.693V233.235H262.421V223.507Z" fill="black"/>
<path d="M272.15 223.507H262.421V233.235H272.15V223.507Z" fill="black"/>
<path d="M281.879 223.507H272.15V233.235H281.879V223.507Z" fill="black"/>
<path d="M301.336 223.507H291.607V233.235H301.336V223.507Z" fill="black"/>
<path d="M311.064 223.507H301.336V233.235H311.064V223.507Z" fill="black"/>
<path d="M116.493 233.235H106.765V242.964H116.493V233.235Z" fill="black"/>
<path d="M126.222 233.235H116.493V242.964H126.222V233.235Z" fill="black"/>
<path d="M165.136 233.235H155.408V242.964H165.136V233.235Z" fill="black"/>
<path d="M184.593 233.235H174.865V242.964H184.593V233.235Z" fill="black"/>
<path d="M194.322 233.235H184.593V242.964H194.322V233.235Z" fill="black"/>
<path d="M223.507 233.235H213.779V242.964H223.507V233.235Z" fill="black"/>
<path d="M233.236 233.235H223.507V242.964H233.236V233.235Z" fill="black"/>
<path d="M272.15 233.235H262.421V242.964H272.15V233.235Z" fill="black"/>
<path d="M291.607 233.235H281.879V242.964H291.607V233.235Z" fill="black"/>
<path d="M311.064 233.235H301.336V242.964H311.064V233.235Z" fill="black"/>
<path d="M38.6651 242.964H28.9365V252.692H38.6651V242.964Z" fill="black"/>
<path d="M48.3936 242.964H38.6651V252.692H48.3936V242.964Z" fill="black"/>
<path d="M58.1221 242.964H48.3936V252.692H58.1221V242.964Z" fill="black"/>
<path d="M67.8507 242.964H58.1221V252.692H67.8507V242.964Z" fill="black"/>
<path d="M77.5792 242.964H67.8507V252.692H77.5792V242.964Z" fill="black"/>
<path d="M87.3078 242.964H77.5792V252.692H87.3078V242.964Z" fill="black"/>
<path d="M97.0363 242.964H87.3078V252.692H97.0363V242.964Z" fill="black"/>
<path d="M126.222 242.964H116.493V252.692H126.222V242.964Z" fill="black"/>
<path d="M155.408 242.964H145.679V252.692H155.408V242.964Z" fill="black"/>
<path d="M174.865 242.964H165.136V252.692H174.865V242.964Z" fill="black"/>
<path d="M204.05 242.964H194.322V252.692H204.05V242.964Z" fill="black"/>
<path d="M213.779 242.964H204.05V252.692H213.779V242.964Z" fill="black"/>
<path d="M223.507 242.964H213.779V252.692H223.507V242.964Z" fill="black"/>
<path d="M233.236 242.964H223.507V252.692H233.236V242.964Z" fill="black"/>
<path d="M252.693 242.964H242.964V252.692H252.693V242.964Z" fill="black"/>
<path d="M272.15 242.964H262.421V252.692H272.15V242.964Z" fill="black"/>
<path d="M281.879 242.964H272.15V252.692H281.879V242.964Z" fill="black"/>
<path d="M38.6651 252.692H28.9365V262.421H38.6651V252.692Z" fill="black"/>
<path d="M97.0363 252.692H87.3078V262.421H97.0363V252.692Z" fill="black"/>
<path d="M116.493 252.692H106.765V262.421H116.493V252.692Z" fill="black"/>
<path d="M135.95 252.692H126.222V262.421H135.95V252.692Z" fill="black"/>
<path d="M184.593 252.692H174.865V262.421H184.593V252.692Z" fill="black"/>
<path d="M204.05 252.692H194.322V262.421H204.05V252.692Z" fill="black"/>
<path d="M213.779 252.692H204.05V262.421H213.779V252.692Z" fill="black"/>
<path d="M223.507 252.692H213.779V262.421H223.507V252.692Z" fill="black"/>
<path d="M233.236 252.692H223.507V262.421H233.236V252.692Z" fill="black"/>
<path d="M272.15 252.692H262.421V262.421H272.15V252.692Z" fill="black"/>
<path d="M281.879 252.692H272.15V262.421H281.879V252.692Z" fill="black"/>
<path d="M301.336 252.692H291.607V262.421H301.336V252.692Z" fill="black"/>
<path d="M38.6651 262.421H28.9365V272.15H38.6651V262.421Z" fill="black"/>
<path d="M58.1221 262.421H48.3936V272.15H58.1221V262.421Z" fill="black"/>
<path d="M67.8507 262.421H58.1221V272.15H67.8507V262.421Z" fill="black"/>
<path d="M77.5792 262.421H67.8507V272.15H77.5792V262.421Z" fill="black"/>
<path d="M97.0363 262.421H87.3078V272.15H97.0363V262.421Z" fill="black"/>
<path d="M174.865 262.421H165.136V272.15H174.865V262.421Z" fill="black"/>
<path d="M233.236 262.421H223.507V272.15H233.236V262.421Z" fill="black"/>
<path d="M242.964 262.421H233.236V272.15H242.964V262.421Z" fill="black"/>
<path d="M252.693 262.421H242.964V272.15H252.693V262.421Z" fill="black"/>
<path d="M262.421 262.421H252.693V272.15H262.421V262.421Z" fill="black"/>
<path d="M272.15 262.421H262.421V272.15H272.15V262.421Z" fill="black"/>
<path d="M281.879 262.421H272.15V272.15H281.879V262.421Z" fill="black"/>
<path d="M291.607 262.421H281.879V272.15H291.607V262.421Z" fill="black"/>
<path d="M311.064 262.421H301.336V272.15H311.064V262.421Z" fill="black"/>
<path d="M38.6651 272.15H28.9365V281.878H38.6651V272.15Z" fill="black"/>
<path d="M58.1221 272.15H48.3936V281.878H58.1221V272.15Z" fill="black"/>
<path d="M67.8507 272.15H58.1221V281.878H67.8507V272.15Z" fill="black"/>
<path d="M77.5792 272.15H67.8507V281.878H77.5792V272.15Z" fill="black"/>
<path d="M97.0363 272.15H87.3078V281.878H97.0363V272.15Z" fill="black"/>
<path d="M145.679 272.15H135.95V281.878H145.679V272.15Z" fill="black"/>
<path d="M194.322 272.15H184.593V281.878H194.322V272.15Z" fill="black"/>
<path d="M204.05 272.15H194.322V281.878H204.05V272.15Z" fill="black"/>
<path d="M213.779 272.15H204.05V281.878H213.779V272.15Z" fill="black"/>
<path d="M223.507 272.15H213.779V281.878H223.507V272.15Z" fill="black"/>
<path d="M281.879 272.15H272.15V281.878H281.879V272.15Z" fill="black"/>
<path d="M301.336 272.15H291.607V281.878H301.336V272.15Z" fill="black"/>
<path d="M311.064 272.15H301.336V281.878H311.064V272.15Z" fill="black"/>
<path d="M38.6651 281.878H28.9365V291.607H38.6651V281.878Z" fill="black"/>
<path d="M58.1221 281.878H48.3936V291.607H58.1221V281.878Z" fill="black"/>
<path d="M67.8507 281.878H58.1221V291.607H67.8507V281.878Z" fill="black"/>
<path d="M77.5792 281.878H67.8507V291.607H77.5792V281.878Z" fill="black"/>
<path d="M97.0363 281.878H87.3078V291.607H97.0363V281.878Z" fill="black"/>
<path d="M126.222 281.878H116.493V291.607H126.222V281.878Z" fill="black"/>
<path d="M145.679 281.878H135.95V291.607H145.679V281.878Z" fill="black"/>
<path d="M204.05 281.878H194.322V291.607H204.05V281.878Z" fill="black"/>
<path d="M233.236 281.878H223.507V291.607H233.236V281.878Z" fill="black"/>
<path d="M242.964 281.878H233.236V291.607H242.964V281.878Z" fill="black"/>
<path d="M262.421 281.878H252.693V291.607H262.421V281.878Z" fill="black"/>
<path d="M281.879 281.878H272.15V291.607H281.879V281.878Z" fill="black"/>
<path d="M291.607 281.878H281.879V291.607H291.607V281.878Z" fill="black"/>
<path d="M38.6651 291.607H28.9365V301.335H38.6651V291.607Z" fill="black"/>
<path d="M97.0363 291.607H87.3078V301.335H97.0363V291.607Z" fill="black"/>
<path d="M126.222 291.607H116.493V301.335H126.222V291.607Z" fill="black"/>
<path d="M135.95 291.607H126.222V301.335H135.95V291.607Z" fill="black"/>
<path d="M145.679 291.607H135.95V301.335H145.679V291.607Z" fill="black"/>
<path d="M155.408 291.607H145.679V301.335H155.408V291.607Z" fill="black"/>
<path d="M165.136 291.607H155.408V301.335H165.136V291.607Z" fill="black"/>
<path d="M174.865 291.607H165.136V301.335H174.865V291.607Z" fill="black"/>
<path d="M194.322 291.607H184.593V301.335H194.322V291.607Z" fill="black"/>
<path d="M213.779 291.607H204.05V301.335H213.779V291.607Z" fill="black"/>
<path d="M242.964 291.607H233.236V301.335H242.964V291.607Z" fill="black"/>
<path d="M252.693 291.607H242.964V301.335H252.693V291.607Z" fill="black"/>
<path d="M262.421 291.607H252.693V301.335H262.421V291.607Z" fill="black"/>
<path d="M272.15 291.607H262.421V301.335H272.15V291.607Z" fill="black"/>
<path d="M301.336 291.607H291.607V301.335H301.336V291.607Z" fill="black"/>
<path d="M311.064 291.607H301.336V301.335H311.064V291.607Z" fill="black"/>
<path d="M38.6651 301.335H28.9365V311.064H38.6651V301.335Z" fill="black"/>
<path d="M48.3936 301.335H38.6651V311.064H48.3936V301.335Z" fill="black"/>
<path d="M58.1221 301.335H48.3936V311.064H58.1221V301.335Z" fill="black"/>
<path d="M67.8507 301.335H58.1221V311.064H67.8507V301.335Z" fill="black"/>
<path d="M77.5792 301.335H67.8507V311.064H77.5792V301.335Z" fill="black"/>
<path d="M87.3078 301.335H77.5792V311.064H87.3078V301.335Z" fill="black"/>
<path d="M97.0363 301.335H87.3078V311.064H97.0363V301.335Z" fill="black"/>
<path d="M126.222 301.335H116.493V311.064H126.222V301.335Z" fill="black"/>
<path d="M174.865 301.335H165.136V311.064H174.865V301.335Z" fill="black"/>
<path d="M204.05 301.335H194.322V311.064H204.05V301.335Z" fill="black"/>
<path d="M213.779 301.335H204.05V311.064H213.779V301.335Z" fill="black"/>
<path d="M233.236 301.335H223.507V311.064H233.236V301.335Z" fill="black"/>
<path d="M242.964 301.335H233.236V311.064H242.964V301.335Z" fill="black"/>
<path d="M281.879 301.335H272.15V311.064H281.879V301.335Z" fill="black"/>
<path d="M291.607 301.335H281.879V311.064H291.607V301.335Z" fill="black"/>
</g>
<defs>
<clipPath id="clip0_72_2857">
<rect width="340" height="340" fill="white"/>
</clipPath>
</defs>
</svg>
